<svg version="1.1" preserveAspectRatio="none" xmlns="http://www.w3.org/2000/svg" width="500" height="500" viewBox="0 0 500 500"><svg viewBox="383 144.9735 380 217.253" width="417" height="238.40658157894734" x="41.5px" y="130.7967px" xmlns="http://www.w3.org/2000/svg" xmlns:xlink="http://www.w3.org/1999/xlink" preserveAspectRatio="none"><defs/><style>.aIptOCySncolors-39bda5079-7451-4e33-96b4-61c12e5a47bd {fill:#285A84;fill-opacity:1;}.aIptOCySncolors-49bda5079-7451-4e33-96b4-61c12e5a47bd {fill:#FFBDBD;fill-opacity:1;}.aIptOCySncolors-59bda5079-7451-4e33-96b4-61c12e5a47bd {fill:#06172B;fill-opacity:1;}.aIptOCySncolors-69bda5079-7451-4e33-96b4-61c12e5a47bd {fill:#8EE2F5;fill-opacity:1;}.aIptOCySncolors-79bda5079-7451-4e33-96b4-61c12e5a47bd {fill:#6FD6EB;fill-opacity:1;}.companyName9bda5079-7451-4e33-96b4-61c12e5a47bd {fill:#285A84;fill-opacity:1;}.icon19bda5079-7451-4e33-96b4-61c12e5a47bd {fill:#85C872;fill-opacity:1;}.icon29bda5079-7451-4e33-96b4-61c12e5a47bd {fill:#C2EF7E;fill-opacity:1;}.icon3-str9bda5079-7451-4e33-96b4-61c12e5a47bd {stroke:#5EA669;stroke-opacity:1;}.icon39bda5079-7451-4e33-96b4-61c12e5a47bd {fill:#5EA669;fill-opacity:1;}.text9bda5079-7451-4e33-96b4-61c12e5a47bd {fill:#285A84;fill-opacity:1;}</style><g opacity="1" transform="rotate(0 418.0506 345.0055)">
<svg width="309.8989" height="17.221" x="418.0506" y="345.0055" version="1.1" preserveAspectRatio="none" viewBox="1.56 -28 652.04 36.239999999999995">
  <g transform="matrix(1 0 0 1 0 0)" class="text9bda5079-7451-4e33-96b4-61c12e5a47bd"><path id="id-9bda5079-7451-4e33-96b4-61c12e5a47bd6izo4zJp32" d="M15.04-2.60L15.04-2.60Q17.88-2.60 20.02-4.04Q22.16-5.48 23.20-7.92L23.20-7.92L26.36-7.92Q25.04-4.16 22-2L22-2Q18.76 0.32 14.36 0.32L14.36 0.32Q8.56 0.32 4.96-3.64L4.96-3.64Q1.56-7.44 1.56-13.24Q1.56-19.04 4.96-22.84L4.96-22.84Q8.56-26.80 14.36-26.80L14.36-26.80Q18.76-26.80 22-24.48L22-24.48Q25.04-22.32 26.36-18.56L26.36-18.56L23.20-18.56Q22.16-21 20.02-22.44Q17.88-23.88 15.04-23.88Q12.20-23.88 10.32-23.06Q8.44-22.24 7.16-20.80L7.16-20.80Q4.56-17.88 4.56-13.24L4.56-13.24Q4.56-8.60 7.16-5.68L7.16-5.68Q9.88-2.60 15.04-2.60Z M50.84 0L47.84 0L47.84-3.12Q46.76-1.68 45.20-0.68Q43.64 0.32 41.64 0.32Q39.64 0.32 38.20-0.24Q36.76-0.80 35.68-1.92L35.68-1.92Q33.20-4.36 33.20-8.36L33.20-8.36L33.20-20L36.20-20L36.20-8.44Q36.20-5.68 37.76-4.04Q39.32-2.40 41.80-2.40L41.80-2.40Q44.32-2.40 46.08-4.08L46.08-4.08Q47.84-5.80 47.84-8.48L47.84-8.48L47.84-20L50.84-20L50.84 0Z M62.24-28L62.24 0L59.24 0L59.24-28L62.24-28Z M75.80 0L72.80 0L72.80-17.36L68.72-17.36L68.72-20L72.80-20L72.80-27.16L75.80-27.16L75.80-20L80.40-20L80.40-17.36L75.80-17.36L75.80 0Z M86.88 0L86.88-20L89.88-20L89.88 0L86.88 0ZM86.76-27.28L90.00-27.28L90.00-23.36L86.76-23.36L86.76-27.28Z M111.76-20L115.04-20L107.24 0L103.72 0L95.88-20L99.16-20L105.48-3.20L111.76-20Z M136.40 0L136.40-3.20Q134.00 0.32 129.24 0.32L129.24 0.32Q124.92 0.32 122.20-2.68L122.20-2.68Q119.56-5.64 119.56-10L119.56-10Q119.56-14.36 122.20-17.32L122.20-17.32Q124.92-20.32 129.44-20.32Q133.96-20.32 136.40-16.76L136.40-16.76L136.40-20L139.40-20L139.40 0L136.40 0ZM129.64-2.40L129.64-2.40Q132.88-2.40 134.76-4.64L134.76-4.64Q136.56-6.76 136.56-10L136.56-10Q136.56-13.24 134.76-15.36L134.76-15.36Q132.88-17.60 129.64-17.60L129.64-17.60Q126.44-17.60 124.44-15.36L124.44-15.36Q122.56-13.24 122.56-10L122.56-10Q122.56-6.76 124.44-4.64L124.44-4.64Q126.44-2.40 129.64-2.40Z M152.96 0L149.96 0L149.96-17.36L145.88-17.36L145.88-20L149.96-20L149.96-27.16L152.96-27.16L152.96-20L157.56-20L157.56-17.36L152.96-17.36L152.96 0Z M164.04 0L164.04-20L167.04-20L167.04 0L164.04 0ZM163.92-27.28L167.16-27.28L167.16-23.36L163.92-23.36L163.92-27.28Z M175.44-20L178.44-20L178.44-16.88Q179.52-18.32 181.08-19.32Q182.64-20.32 184.64-20.32Q186.64-20.32 188.08-19.76Q189.52-19.20 190.60-18.08L190.60-18.08Q193.08-15.64 193.08-11.64L193.08-11.64L193.08 0L190.08 0L190.08-11.56Q190.08-14.32 188.52-15.96Q186.96-17.60 184.48-17.60L184.48-17.60Q181.96-17.60 180.20-15.92L180.20-15.92Q178.44-14.20 178.44-11.52L178.44-11.52L178.44 0L175.44 0L175.44-20Z M216.88-16.80L216.88-16.80L216.88-20L219.88-20L219.88-0.60Q219.88 3.72 217.42 5.98Q214.96 8.24 210.80 8.24Q206.64 8.24 204.30 6.64Q201.96 5.04 201.12 2.40L201.12 2.40L204.44 2.40Q205.72 5.52 210.28 5.52L210.28 5.52Q213.76 5.52 215.32 3.92Q216.88 2.32 216.88-0.80L216.88-0.80L216.88-3.56Q214.44 0 209.72 0L209.72 0Q205.40 0 202.68-2.96L202.68-2.96Q200.04-5.84 200.04-10.16L200.04-10.16Q200.04-14.48 202.68-17.36L202.68-17.36Q205.40-20.32 209.94-20.32Q214.48-20.32 216.88-16.80ZM210.12-2.72L210.12-2.72Q211.76-2.72 213.04-3.30Q214.32-3.88 215.24-4.88L215.24-4.88Q217.04-6.96 217.04-10.16L217.04-10.16Q217.04-13.36 215.24-15.44L215.24-15.44Q213.28-17.60 210.12-17.60L210.12-17.60Q206.88-17.60 204.92-15.44L204.92-15.44Q203.04-13.32 203.04-10.16L203.04-10.16Q203.04-7 204.92-4.88L204.92-4.88Q206.88-2.72 210.12-2.72Z M243.64-9.44L243.64 0L240.64 0L240.64-26.48L252.56-26.48Q256.76-26.48 259.24-24.16L259.24-24.16Q261.68-21.84 261.68-17.96L261.68-17.96Q261.68-14.04 259.22-11.74Q256.76-9.44 252.56-9.44L252.56-9.44L243.64-9.44ZM252.36-23.64L243.64-23.64L243.64-12.24L252.36-12.24Q255.48-12.24 257.08-13.76Q258.68-15.28 258.68-17.94Q258.68-20.60 257.08-22.12Q255.48-23.64 252.36-23.64L252.36-23.64Z M278.68-20.32L278.88-20.32L278.88-17.32L278.52-17.32Q275.28-17.32 273.24-14.72L273.24-14.72Q271.32-12.24 271.32-8.80L271.32-8.80L271.32 0L268.32 0L268.32-20L271.32-20L271.32-15.08Q272.28-18.20 275.48-19.68L275.48-19.68Q276.80-20.32 278.68-20.32L278.68-20.32Z M293.48-20.32L293.48-20.32Q297.96-20.32 300.76-17.32L300.76-17.32Q303.40-14.44 303.40-10L303.40-10Q303.40-5.56 300.76-2.68L300.76-2.68Q297.96 0.32 293.48 0.32L293.48 0.32Q289.00 0.32 286.20-2.68L286.20-2.68Q283.56-5.56 283.56-10L283.56-10Q283.56-14.44 286.20-17.32L286.20-17.32Q289.00-20.32 293.48-20.32ZM293.48-2.40L293.48-2.40Q296.72-2.40 298.60-4.64L298.60-4.64Q300.40-6.76 300.40-10L300.40-10Q300.40-13.24 298.60-15.36L298.60-15.36Q296.72-17.60 293.48-17.60L293.48-17.60Q290.24-17.60 288.36-15.36L288.36-15.36Q286.56-13.24 286.56-10L286.56-10Q286.56-6.76 288.36-4.64L288.36-4.64Q290.24-2.40 293.48-2.40Z M325.36-14.64L322.32-14.64Q321.92-17.76 317.30-17.76Q312.68-17.76 312.68-14.88L312.68-14.88Q312.68-13.68 313.66-13.06Q314.64-12.44 316.12-12.04Q317.60-11.64 319.34-11.30Q321.08-10.96 322.56-10.34Q324.04-9.72 325.02-8.64Q326.00-7.56 326.00-5.68L326.00-5.68Q326.00-2.76 323.80-1.22Q321.60 0.32 317.84 0.32L317.84 0.32Q313.84 0.32 311.48-1.68L311.48-1.68Q309.32-3.44 309.16-6.28L309.16-6.28L312.28-6.28Q312.56-3.52 315.40-2.56L315.40-2.56Q316.44-2.24 317.46-2.24Q318.48-2.24 319.36-2.36Q320.24-2.48 321.08-2.80L321.08-2.80Q323.00-3.56 323.00-5.40L323.00-5.40Q323.00-6.64 322.02-7.30Q321.04-7.96 319.56-8.38Q318.08-8.80 316.34-9.14Q314.60-9.48 313.12-10.08Q311.64-10.68 310.66-11.72Q309.68-12.76 309.68-14.60L309.68-14.60Q309.68-17.32 311.66-18.82Q313.64-20.32 317.52-20.32L317.52-20.32Q321.20-20.32 323.32-18.56L323.32-18.56Q325.08-17.08 325.36-14.64L325.36-14.64Z M336.04-20L336.04-16.80Q338.44-20.32 343.20-20.32L343.20-20.32Q347.52-20.32 350.20-17.32L350.20-17.32Q352.88-14.36 352.88-10L352.88-10Q352.88-5.64 350.20-2.68L350.20-2.68Q347.52 0.32 343.00 0.32Q338.48 0.32 336.04-3.24L336.04-3.24L336.04 7.92L333.04 7.92L333.04-20L336.04-20ZM342.80-17.60L342.80-17.60Q339.56-17.60 337.68-15.36L337.68-15.36Q335.88-13.24 335.88-10L335.88-10Q335.88-6.76 337.68-4.64L337.68-4.64Q339.56-2.40 342.80-2.40L342.80-2.40Q346.00-2.40 348.00-4.64L348.00-4.64Q349.88-6.76 349.88-10L349.88-10Q349.88-13.24 348.00-15.36L348.00-15.36Q346.00-17.60 342.80-17.60Z M368.92-2.40L368.92-2.40Q372.96-2.40 374.72-5.76L374.72-5.76L378.00-5.76Q376.96-3.04 374.70-1.36Q372.44 0.32 368.88 0.32L368.88 0.32Q364.36 0.32 361.52-2.68L361.52-2.68Q358.76-5.60 358.76-10L358.76-10Q358.76-14.44 361.40-17.32L361.40-17.32Q364.20-20.32 368.68-20.32L368.68-20.32Q373.16-20.32 375.96-17.32L375.96-17.32Q378.60-14.44 378.60-10L378.60-10L378.60-8.80L361.84-8.80Q362.16-6.04 364.04-4.24L364.04-4.24Q365.96-2.40 368.92-2.40ZM368.68-17.60L368.68-17.60Q365.92-17.60 364.04-15.88L364.04-15.88Q362.28-14.24 361.88-11.60L361.88-11.60L375.48-11.60Q375.08-14.24 373.32-15.88L373.32-15.88Q371.44-17.60 368.68-17.60Z M395.84-20.32L396.04-20.32L396.04-17.32L395.68-17.32Q392.44-17.32 390.40-14.72L390.40-14.72Q388.48-12.24 388.48-8.80L388.48-8.80L388.48 0L385.48 0L385.48-20L388.48-20L388.48-15.08Q389.44-18.20 392.64-19.68L392.64-19.68Q393.96-20.32 395.84-20.32L395.84-20.32Z M402.48 0L402.48-20L405.48-20L405.48 0L402.48 0ZM402.36-27.28L405.60-27.28L405.60-23.36L402.36-23.36L402.36-27.28Z M419.04 0L416.04 0L416.04-17.36L411.96-17.36L411.96-20L416.04-20L416.04-27.16L419.04-27.16L419.04-20L423.64-20L423.64-17.36L419.04-17.36L419.04 0Z M447.28-20L435.44 7.92L432.20 7.92L435.84-0.28L427.68-20L431.00-20L437.44-3.60L444.00-20L447.28-20Z M449.72 5.32L452.04-3.20L455.96-3.20L452.44 5.32L449.72 5.32Z M495.04-26.48L495.04-23.60L485.80-23.60L485.80 0L482.80 0L482.80-23.60L473.56-23.60L473.56-26.48L495.04-26.48Z M506.16-20.32L506.16-20.32Q510.64-20.32 513.44-17.32L513.44-17.32Q516.08-14.44 516.08-10L516.08-10Q516.08-5.56 513.44-2.68L513.44-2.68Q510.64 0.32 506.16 0.32L506.16 0.32Q501.68 0.32 498.88-2.68L498.88-2.68Q496.24-5.56 496.24-10L496.24-10Q496.24-14.44 498.88-17.32L498.88-17.32Q501.68-20.32 506.16-20.32ZM506.16-2.40L506.16-2.40Q509.40-2.40 511.28-4.64L511.28-4.64Q513.08-6.76 513.08-10L513.08-10Q513.08-13.24 511.28-15.36L511.28-15.36Q509.40-17.60 506.16-17.60L506.16-17.60Q502.92-17.60 501.04-15.36L501.04-15.36Q499.24-13.24 499.24-10L499.24-10Q499.24-6.76 501.04-4.64L501.04-4.64Q502.92-2.40 506.16-2.40Z M538.84-16.80L538.84-16.80L538.84-20L541.84-20L541.84-0.60Q541.84 3.72 539.38 5.98Q536.92 8.24 532.76 8.24Q528.60 8.24 526.26 6.64Q523.92 5.04 523.08 2.40L523.08 2.40L526.40 2.40Q527.68 5.52 532.24 5.52L532.24 5.52Q535.72 5.52 537.28 3.92Q538.84 2.32 538.84-0.80L538.84-0.80L538.84-3.56Q536.40 0 531.68 0L531.68 0Q527.36 0 524.64-2.96L524.64-2.96Q522.00-5.84 522.00-10.16L522.00-10.16Q522.00-14.48 524.64-17.36L524.64-17.36Q527.36-20.32 531.90-20.32Q536.44-20.32 538.84-16.80ZM532.08-2.72L532.08-2.72Q533.72-2.72 535.00-3.30Q536.28-3.88 537.20-4.88L537.20-4.88Q539.00-6.96 539.00-10.16L539.00-10.16Q539.00-13.36 537.20-15.44L537.20-15.44Q535.24-17.60 532.08-17.60L532.08-17.60Q528.84-17.60 526.88-15.44L526.88-15.44Q525.00-13.32 525.00-10.16L525.00-10.16Q525.00-7 526.88-4.88L526.88-4.88Q528.84-2.72 532.08-2.72Z M559.16-2.40L559.16-2.40Q563.20-2.40 564.96-5.76L564.96-5.76L568.24-5.76Q567.20-3.04 564.94-1.36Q562.68 0.32 559.12 0.32L559.12 0.32Q554.60 0.32 551.76-2.68L551.76-2.68Q549.00-5.60 549.00-10L549.00-10Q549.00-14.44 551.64-17.32L551.64-17.32Q554.44-20.32 558.92-20.32L558.92-20.32Q563.40-20.32 566.20-17.32L566.20-17.32Q568.84-14.44 568.84-10L568.84-10L568.84-8.80L552.08-8.80Q552.40-6.04 554.28-4.24L554.28-4.24Q556.20-2.40 559.16-2.40ZM558.92-17.60L558.92-17.60Q556.16-17.60 554.28-15.88L554.28-15.88Q552.52-14.24 552.12-11.60L552.12-11.60L565.72-11.60Q565.32-14.24 563.56-15.88L563.56-15.88Q561.68-17.60 558.92-17.60Z M580.64 0L577.64 0L577.64-17.36L573.56-17.36L573.56-20L577.64-20L577.64-27.16L580.64-27.16L580.64-20L585.24-20L585.24-17.36L580.64-17.36L580.64 0Z M591.72-28L594.72-28L594.72-16.88Q595.80-18.32 597.36-19.32Q598.92-20.32 600.92-20.32Q602.92-20.32 604.36-19.76Q605.80-19.20 606.88-18.08L606.88-18.08Q609.36-15.64 609.36-11.64L609.36-11.64L609.36 0L606.36 0L606.36-11.56Q606.36-14.32 604.80-15.96Q603.24-17.60 600.76-17.60L600.76-17.60Q598.24-17.60 596.48-15.92L596.48-15.92Q594.72-14.20 594.72-11.52L594.72-11.52L594.72 0L591.72 0L591.72-28Z M626.48-2.40L626.48-2.40Q630.52-2.40 632.28-5.76L632.28-5.76L635.56-5.76Q634.52-3.04 632.26-1.36Q630.00 0.32 626.44 0.32L626.44 0.32Q621.92 0.32 619.08-2.68L619.08-2.68Q616.32-5.60 616.32-10L616.32-10Q616.32-14.44 618.96-17.32L618.96-17.32Q621.76-20.32 626.24-20.32L626.24-20.32Q630.72-20.32 633.52-17.32L633.52-17.32Q636.16-14.44 636.16-10L636.16-10L636.16-8.80L619.40-8.80Q619.72-6.04 621.60-4.24L621.60-4.24Q623.52-2.40 626.48-2.40ZM626.24-17.60L626.24-17.60Q623.48-17.60 621.60-15.88L621.60-15.88Q619.84-14.24 619.44-11.60L619.44-11.60L633.04-11.60Q632.64-14.24 630.88-15.88L630.88-15.88Q629.00-17.60 626.24-17.60Z M653.40-20.32L653.60-20.32L653.60-17.32L653.24-17.32Q650.00-17.32 647.96-14.72L647.96-14.72Q646.04-12.24 646.04-8.80L646.04-8.80L646.04 0L643.04 0L643.04-20L646.04-20L646.04-15.08Q647.00-18.20 650.20-19.68L650.20-19.68Q651.52-20.32 653.40-20.32L653.40-20.32Z"/></g>
</svg>
</g><g opacity="1" transform="rotate(0 383 297.1692)">
<svg width="380" height="32.5287" x="383" y="297.1692" version="1.1" preserveAspectRatio="none" viewBox="1.12 -31.4 467.28 40">
  <g transform="matrix(1 0 0 1 0 0)" class="companyName9bda5079-7451-4e33-96b4-61c12e5a47bd"><path id="id-9bda5079-7451-4e33-96b4-61c12e5a47bdD6z1nYkh24" d="M10.04 0.48Q5.64 0.48 1.12-0.88L1.12-0.88Q1.32-4.84 1.76-8.24L1.76-8.24L4.84-8.84L6.84-5.44Q9.24-4.60 11.08-4.60L11.08-4.60Q11.72-4.60 13.80-4.96L13.80-4.96Q13.88-5.76 13.88-6.04L13.88-6.04Q13.88-7 13.56-7.50Q13.24-8 12.16-8.62Q11.08-9.24 8.28-10.48L8.28-10.48Q4.84-12.16 3.32-14.10Q1.80-16.04 1.80-18.68L1.80-18.68Q1.80-22.80 4.60-25.12Q7.40-27.44 12.28-27.44L12.28-27.44Q14.64-27.44 16.98-26.98Q19.32-26.52 21.08-25.72L21.08-25.72Q21-23.48 20.72-20.16L20.72-20.16L20.60-18.44L17.68-18L14.64-21.88Q13.20-22.32 11.04-22.32L11.04-22.32Q9.68-22.32 9-22.08L9-22.08Q8.80-21.28 8.80-20.84L8.80-20.84Q8.80-19.96 9.24-19.30Q9.68-18.64 10.80-17.94Q11.92-17.24 14.12-16.20L14.12-16.20Q17.32-14.68 18.96-13.52Q20.60-12.36 21.26-11.10Q21.92-9.84 21.92-8.04L21.92-8.04Q21.92-4.08 18.76-1.80Q15.60 0.48 10.04 0.48L10.04 0.48Z M23.68 0L23.48-3.80L25.96-4.52L25.96-23.68Q25.96-24.56 25.84-24.82Q25.72-25.08 25.20-25.40L25.20-25.40L23.44-26.32L23.56-29.36L24.80-29.56Q30.08-30.52 32.20-30.60L32.20-30.60Q32.56-29.64 32.72-28.52L32.72-28.52L32.72-19.40Q34.92-20.40 36.46-20.86Q38-21.32 39.52-21.32L39.52-21.32Q45.76-21.32 45.76-13.72L45.76-13.72L45.76-5.84Q45.76-5 45.88-4.72Q46-4.44 46.56-4.12L46.56-4.12L48.48-3L48.32 0L37.28 0L37.08-3.80L39.04-4.36L39.04-11.96Q39.04-13.72 38.94-14.46Q38.84-15.20 38.28-15.60Q37.72-16 36.40-16L36.40-16Q35.12-16 32.72-15.56L32.72-15.56L32.72-5.84Q32.72-5 32.84-4.72Q32.96-4.44 33.48-4.12L33.48-4.12L35.44-3L35.28 0L23.68 0Z M50.12 0L49.92-3.80L52.36-4.52L52.36-14.24Q52.36-15.12 52.24-15.38Q52.12-15.64 51.60-15.96L51.60-15.96L49.84-16.92L49.96-19.92Q50.64-20.08 51.12-20.12L51.12-20.12Q55.96-21.12 58.28-21.20L58.28-21.20Q58.64-20.16 58.96-18.60L58.96-18.60Q61.36-20.48 63.04-21.20L63.04-21.20L65.32-21.20Q65.28-19.68 65.12-17.90Q64.96-16.12 64.72-15.04L64.72-15.04Q63.28-15.12 62.60-15.12L62.60-15.12Q60.92-15.12 59.12-14.92L59.12-14.92L59.12-5.84Q59.12-5 59.24-4.72Q59.36-4.44 59.88-4.12L59.88-4.12L62.28-2.84L62.12 0L50.12 0Z M70.24-23.48L68.56-29.60L75.36-31.40L77-25.32L70.24-23.48ZM67 0L66.88-3.68L69.68-4.52L69.68-14.24Q69.68-15.12 69.54-15.38Q69.40-15.64 68.84-15.96L68.84-15.96L67.08-16.92L67.28-19.92Q70.60-20.56 72.42-20.86Q74.24-21.16 75.76-21.20L75.76-21.20Q76.28-19.48 76.40-18.64L76.40-18.64L76.40-5.84Q76.40-5 76.52-4.72Q76.64-4.44 77.20-4.12L77.20-4.12L79.16-3L79 0L67 0Z M89.28 0L89.08-4.20L91.60-4.88L91.60-20.20Q91.60-21.24 91.46-21.58Q91.32-21.92 90.68-22.20L90.68-22.20L89.00-23.16L89.12-26.96L101.60-26.96L101.80-22.88L98.84-22.08L98.84-14.56L105.84-22.12Q106.00-22.28 106.00-22.56L106.00-22.56Q106.00-22.76 105.88-22.92L105.88-22.92L104.72-24.32L105.16-26.96L114.44-26.96L114.92-24.24L105.76-14.44L115.56-1.80L115.56 0L107.92 0L98.84-12.04L98.84-6.48Q98.84-5.60 98.98-5.28Q99.12-4.96 99.72-4.64L99.72-4.64L101.84-3.44L101.68 0L89.28 0Z M117.40 0L117.20-3.80L119.64-4.52L119.64-14.24Q119.64-15.12 119.52-15.38Q119.40-15.64 118.88-15.96L118.88-15.96L117.12-16.92L117.24-19.92Q117.92-20.08 118.40-20.12L118.40-20.12Q123.24-21.12 125.56-21.20L125.56-21.20Q125.92-20.16 126.24-18.60L126.24-18.60Q128.64-20.48 130.32-21.20L130.32-21.20L132.60-21.20Q132.56-19.68 132.40-17.90Q132.24-16.12 132-15.04L132-15.04Q130.56-15.12 129.88-15.12L129.88-15.12Q128.20-15.12 126.40-14.92L126.40-14.92L126.40-5.84Q126.40-5 126.52-4.72Q126.64-4.44 127.16-4.12L127.16-4.12L129.56-2.84L129.40 0L117.40 0Z M137.52-23.48L135.84-29.60L142.64-31.40L144.28-25.32L137.52-23.48ZM134.28 0L134.16-3.68L136.96-4.52L136.96-14.24Q136.96-15.12 136.82-15.38Q136.68-15.64 136.12-15.96L136.12-15.96L134.36-16.92L134.56-19.92Q137.88-20.56 139.70-20.86Q141.52-21.16 143.04-21.20L143.04-21.20Q143.56-19.48 143.68-18.64L143.68-18.64L143.68-5.84Q143.68-5 143.80-4.72Q143.92-4.44 144.48-4.12L144.48-4.12L146.44-3L146.28 0L134.28 0Z M155.48 0.68Q152.32 0.68 148.16-0.44L148.16-0.44Q148.40-4.36 148.68-6.24L148.68-6.24L150.96-6.68L153.48-4Q154.80-3.60 156.44-3.60L156.44-3.60Q157.36-3.60 157.88-3.72L157.88-3.72Q158-4.04 158-4.60L158-4.60Q158-5.08 157.78-5.40Q157.56-5.72 156.80-6.16Q156.04-6.60 154.16-7.52L154.16-7.52Q151.80-8.76 150.56-9.74Q149.32-10.72 148.78-11.76Q148.24-12.80 148.24-14.24L148.24-14.24Q148.24-17.44 150.62-19.32Q153-21.20 157.08-21.20L157.08-21.20Q158.76-21.20 160.62-20.82Q162.48-20.44 163.96-19.80L163.96-19.80Q163.96-17.20 163.60-14L163.60-14L161.52-13.68L158.84-16.56Q157.80-16.88 155.80-16.88L155.80-16.88Q155.48-16.88 154.52-16.80L154.52-16.80Q154.40-16.56 154.40-16.04L154.40-16.04Q154.40-15.48 154.72-15.06Q155.04-14.64 155.86-14.14Q156.68-13.64 158.48-12.72L158.48-12.72Q161.12-11.44 162.46-10.50Q163.80-9.56 164.34-8.60Q164.88-7.64 164.88-6.28L164.88-6.28Q164.88-3 162.38-1.16Q159.88 0.68 155.48 0.68L155.48 0.68Z M166.32 0L166.12-3.80L168.60-4.52L168.60-23.68Q168.60-24.56 168.48-24.82Q168.36-25.08 167.84-25.40L167.84-25.40L166.08-26.32L166.20-29.36L167.44-29.56Q172.72-30.52 174.84-30.60L174.84-30.60Q175.20-29.64 175.36-28.52L175.36-28.52L175.36-19.40Q177.56-20.40 179.10-20.86Q180.64-21.32 182.16-21.32L182.16-21.32Q188.40-21.32 188.40-13.72L188.40-13.72L188.40-5.84Q188.40-5 188.52-4.72Q188.64-4.44 189.20-4.12L189.20-4.12L191.12-3L190.96 0L179.92 0L179.72-3.80L181.68-4.36L181.68-11.96Q181.68-13.72 181.58-14.46Q181.48-15.20 180.92-15.60Q180.36-16 179.04-16L179.04-16Q177.76-16 175.36-15.56L175.36-15.56L175.36-5.84Q175.36-5 175.48-4.72Q175.60-4.44 176.12-4.12L176.12-4.12L178.08-3L177.92 0L166.32 0Z M192.72-0.04L192.52-3.84L195-4.56L195-14.24Q195-15.12 194.88-15.38Q194.76-15.64 194.24-15.96L194.24-15.96L192.48-16.92L192.60-19.92L193.48-20.08Q198.72-21.12 201.04-21.20L201.04-21.20Q201.36-20.36 201.56-19.36L201.56-19.36Q204-20.48 205.54-20.90Q207.08-21.32 208.44-21.32L208.44-21.32Q214.80-21.32 214.80-13.72L214.80-13.72L214.80-5.88Q214.80-5.04 214.92-4.76Q215.04-4.48 215.60-4.16L215.60-4.16L217.52-3.04L217.36-0.04L206.32-0.04L206.12-3.84L208.08-4.40L208.08-11.96Q208.08-13.76 207.96-14.48Q207.84-15.20 207.30-15.60Q206.76-16 205.40-16L205.40-16Q203.96-16 201.76-15.56L201.76-15.56L201.76-5.88Q201.76-5.04 201.88-4.76Q202-4.48 202.52-4.16L202.52-4.16L204.48-3.04L204.32-0.04L192.72-0.04Z M224.68 0.52Q221.96 0.52 220.32-0.98Q218.68-2.48 218.68-4.84L218.68-4.84Q218.68-8 221.86-9.80Q225.04-11.60 231.12-11.84L231.12-11.84Q231.12-13.72 230.82-14.62Q230.52-15.52 229.74-15.86Q228.96-16.20 227.36-16.20L227.36-16.20Q225.72-16.20 225.04-16.08L225.04-16.08L223.40-12.84L220.44-13.04Q219.76-16.24 219.48-19.68L219.48-19.68Q221.72-20.44 224.38-20.88Q227.04-21.32 229.36-21.32L229.36-21.32Q233.60-21.32 235.44-19.66Q237.28-18 237.28-14.16L237.28-14.16L237.28-5.80Q237.28-5.08 237.42-4.80Q237.56-4.52 238.04-4.24L238.04-4.24L239.64-3.32L239.48-0.84Q234.84 0.24 232.16 0.36L232.16 0.36Q232.08 0.12 231.92-0.50Q231.76-1.12 231.64-1.68L231.64-1.68Q230.08-0.68 228.22-0.08Q226.36 0.52 224.68 0.52L224.68 0.52ZM227.36-4Q228.96-4 231.24-5.08L231.24-5.08L231.08-8.12Q230.12-8.20 229.80-8.20L229.80-8.20Q228.72-8.20 227.28-7.98Q225.84-7.76 225-7.48L225-7.48Q224.88-6.96 224.88-6.52L224.88-6.52Q224.88-5.32 225.54-4.66Q226.20-4 227.36-4L227.36-4Z M249.56 0L249.36-4.08L252.28-4.88L252.28-20.20Q252.28-21.24 252.12-21.58Q251.96-21.92 251.28-22.20L251.28-22.20L249.28-23.36L249.40-26.96L271.12-26.96Q271.40-22.76 271.40-18.76L271.40-18.76L268.44-18.56L265.60-22.08L259.56-22.24L259.56-15.72L268.08-16.44L268.08-10.28L259.56-11.20L259.56-4.76L266.20-4.88L269.28-8.40L272.24-8.20Q272.08-4 271.64 0L271.64 0L249.56 0Z M274.44-0.04L274.24-3.84L276.72-4.56L276.72-14.24Q276.72-15.12 276.60-15.38Q276.48-15.64 275.96-15.96L275.96-15.96L274.20-16.92L274.32-19.92L275.20-20.08Q280.44-21.12 282.76-21.20L282.76-21.20Q283.08-20.36 283.28-19.36L283.28-19.36Q285.72-20.48 287.26-20.90Q288.80-21.32 290.16-21.32L290.16-21.32Q296.52-21.32 296.52-13.72L296.52-13.72L296.52-5.88Q296.52-5.04 296.64-4.76Q296.76-4.48 297.32-4.16L297.32-4.16L299.24-3.04L299.08-0.04L288.04-0.04L287.84-3.84L289.80-4.40L289.80-11.96Q289.80-13.76 289.68-14.48Q289.56-15.20 289.02-15.60Q288.48-16 287.12-16L287.12-16Q285.68-16 283.48-15.56L283.48-15.56L283.48-5.88Q283.48-5.04 283.60-4.76Q283.72-4.48 284.24-4.16L284.24-4.16L286.20-3.04L286.04-0.04L274.44-0.04Z M308.76 0.52Q305.24 0.52 303.56-1.22Q301.88-2.96 301.88-6.52L301.88-6.52L301.88-16.24L299.08-16.24L299.08-19.16L306.28-25.72L308.60-25.44L308.60-20.92L315.32-20.92L315.32-16.20L308.60-16.20L308.60-7.96Q308.60-6.04 309.14-5.40Q309.68-4.76 311.24-4.76L311.24-4.76Q312.56-4.76 314.92-5.12L314.92-5.12L315.40-1.04Q313.96-0.36 312.18 0.08Q310.40 0.52 308.76 0.52L308.76 0.52Z M326.88 0.48Q322.20 0.48 319.66-2.36Q317.12-5.20 317.12-10.20L317.12-10.20Q317.12-13.68 318.36-16.18Q319.60-18.68 321.88-20Q324.16-21.32 327.20-21.32L327.20-21.32Q331.72-21.32 334.14-18.44Q336.56-15.56 336.44-10.24L336.44-10.24L324.28-8Q324.84-6.32 325.86-5.54Q326.88-4.76 328.56-4.76L328.56-4.76Q329.72-4.76 331.32-5.10Q332.92-5.44 334.56-6.04L334.56-6.04L335.48-2.08Q334.00-0.96 331.64-0.24Q329.28 0.48 326.88 0.48L326.88 0.48ZM323.88-11.96L329.88-13.60Q329.80-15.12 329.02-15.82Q328.24-16.52 326.84-16.52L326.84-16.52Q325.68-16.52 324.64-16.20L324.64-16.20Q323.80-14.24 323.88-11.96L323.88-11.96Z M338.44 0L338.24-3.80L340.68-4.52L340.68-14.24Q340.68-15.12 340.56-15.38Q340.44-15.64 339.92-15.96L339.92-15.96L338.16-16.92L338.28-19.92Q338.96-20.08 339.44-20.12L339.44-20.12Q344.28-21.12 346.60-21.20L346.60-21.20Q346.96-20.16 347.28-18.60L347.28-18.60Q349.68-20.48 351.36-21.20L351.36-21.20L353.64-21.20Q353.60-19.68 353.44-17.90Q353.28-16.12 353.04-15.04L353.04-15.04Q351.60-15.12 350.92-15.12L350.92-15.12Q349.24-15.12 347.44-14.92L347.44-14.92L347.44-5.84Q347.44-5 347.56-4.72Q347.68-4.44 348.20-4.12L348.20-4.12L350.60-2.84L350.44 0L338.44 0Z M355.52 8.60L355.32 4.80L357.80 4.12L357.80-14.24Q357.80-15.12 357.68-15.38Q357.56-15.64 357.00-15.96L357.00-15.96L355.20-16.92L355.40-19.92Q355.60-19.96 355.80-20Q356.00-20.04 356.24-20.08L356.24-20.08Q358.12-20.44 360.22-20.78Q362.32-21.12 363.68-21.20L363.68-21.20Q364.04-20.36 364.16-19.28L364.16-19.28Q365.40-20.28 366.82-20.80Q368.24-21.32 369.64-21.32L369.64-21.32Q373.64-21.32 375.78-18.50Q377.92-15.68 377.92-10.48L377.92-10.48Q377.92-5.08 374.96-2.22Q372.00 0.64 366.40 0.64L366.40 0.64Q365.80 0.64 364.52 0.56L364.52 0.56L364.52 2.76Q364.52 3.64 364.64 3.92Q364.76 4.20 365.32 4.48L365.32 4.48L367.68 5.80L367.52 8.60L355.52 8.60ZM367.44-4.32Q369.32-4.32 370.48-4.84L370.48-4.84Q370.80-5.84 371.02-7.26Q371.24-8.68 371.24-9.92L371.24-9.92Q371.24-13 370.18-14.68Q369.12-16.36 367.24-16.36L367.24-16.36Q366.08-16.36 364.52-15.68L364.52-15.68L364.52-4.80Q365.68-4.32 367.44-4.32L367.44-4.32Z M380.00 0L379.80-3.80L382.24-4.52L382.24-14.24Q382.24-15.12 382.12-15.38Q382.00-15.64 381.48-15.96L381.48-15.96L379.72-16.92L379.84-19.92Q380.52-20.08 381.00-20.12L381.00-20.12Q385.84-21.12 388.16-21.20L388.16-21.20Q388.52-20.16 388.84-18.60L388.84-18.60Q391.24-20.48 392.92-21.20L392.92-21.20L395.20-21.20Q395.16-19.68 395.00-17.90Q394.84-16.12 394.60-15.04L394.60-15.04Q393.16-15.12 392.48-15.12L392.48-15.12Q390.80-15.12 389.00-14.92L389.00-14.92L389.00-5.84Q389.00-5 389.12-4.72Q389.24-4.44 389.76-4.12L389.76-4.12L392.16-2.84L392.00 0L380.00 0Z M400.12-23.48L398.44-29.60L405.24-31.40L406.88-25.32L400.12-23.48ZM396.88 0L396.76-3.68L399.56-4.52L399.56-14.24Q399.56-15.12 399.42-15.38Q399.28-15.64 398.72-15.96L398.72-15.96L396.96-16.92L397.16-19.92Q400.48-20.56 402.30-20.86Q404.12-21.16 405.64-21.20L405.64-21.20Q406.16-19.48 406.28-18.64L406.28-18.64L406.28-5.84Q406.28-5 406.40-4.72Q406.52-4.44 407.08-4.12L407.08-4.12L409.04-3L408.88 0L396.88 0Z M418.08 0.68Q414.92 0.68 410.76-0.44L410.76-0.44Q411.00-4.36 411.28-6.24L411.28-6.24L413.56-6.68L416.08-4Q417.40-3.60 419.04-3.60L419.04-3.60Q419.96-3.60 420.48-3.72L420.48-3.72Q420.60-4.04 420.60-4.60L420.60-4.60Q420.60-5.08 420.38-5.40Q420.16-5.72 419.40-6.16Q418.64-6.60 416.76-7.52L416.76-7.52Q414.40-8.76 413.16-9.74Q411.92-10.72 411.38-11.76Q410.84-12.80 410.84-14.24L410.84-14.24Q410.84-17.44 413.22-19.32Q415.60-21.20 419.68-21.20L419.68-21.20Q421.36-21.20 423.22-20.82Q425.08-20.44 426.56-19.80L426.56-19.80Q426.56-17.20 426.20-14L426.20-14L424.12-13.68L421.44-16.56Q420.40-16.88 418.40-16.88L418.40-16.88Q418.08-16.88 417.12-16.80L417.12-16.80Q417.00-16.56 417.00-16.04L417.00-16.04Q417.00-15.48 417.32-15.06Q417.64-14.64 418.46-14.14Q419.28-13.64 421.08-12.72L421.08-12.72Q423.72-11.44 425.06-10.50Q426.40-9.56 426.94-8.60Q427.48-7.64 427.48-6.28L427.48-6.28Q427.48-3 424.98-1.16Q422.48 0.68 418.08 0.68L418.08 0.68Z M439.76 0.48Q435.08 0.48 432.54-2.36Q430.00-5.20 430.00-10.20L430.00-10.20Q430.00-13.68 431.24-16.18Q432.48-18.68 434.76-20Q437.04-21.32 440.08-21.32L440.08-21.32Q444.60-21.32 447.02-18.44Q449.44-15.56 449.32-10.24L449.32-10.24L437.16-8Q437.72-6.32 438.74-5.54Q439.76-4.76 441.44-4.76L441.44-4.76Q442.60-4.76 444.20-5.10Q445.80-5.44 447.44-6.04L447.44-6.04L448.36-2.08Q446.88-0.96 444.52-0.24Q442.16 0.48 439.76 0.48L439.76 0.48ZM436.76-11.96L442.76-13.60Q442.68-15.12 441.90-15.82Q441.12-16.52 439.72-16.52L439.72-16.52Q438.56-16.52 437.52-16.20L437.52-16.20Q436.68-14.24 436.76-11.96L436.76-11.96Z M459.00 0.68Q455.84 0.68 451.68-0.44L451.68-0.44Q451.92-4.36 452.20-6.24L452.20-6.24L454.48-6.68L457.00-4Q458.32-3.60 459.96-3.60L459.96-3.60Q460.88-3.60 461.40-3.72L461.40-3.72Q461.52-4.04 461.52-4.60L461.52-4.60Q461.52-5.08 461.30-5.40Q461.08-5.72 460.32-6.16Q459.56-6.60 457.68-7.52L457.68-7.52Q455.32-8.76 454.08-9.74Q452.84-10.72 452.30-11.76Q451.76-12.80 451.76-14.24L451.76-14.24Q451.76-17.44 454.14-19.32Q456.52-21.20 460.60-21.20L460.60-21.20Q462.28-21.20 464.14-20.82Q466.00-20.44 467.48-19.80L467.48-19.80Q467.48-17.20 467.12-14L467.12-14L465.04-13.68L462.36-16.56Q461.32-16.88 459.32-16.88L459.32-16.88Q459.00-16.88 458.04-16.80L458.04-16.80Q457.92-16.56 457.92-16.04L457.92-16.04Q457.92-15.48 458.24-15.06Q458.56-14.64 459.38-14.14Q460.20-13.64 462.00-12.72L462.00-12.72Q464.64-11.44 465.98-10.50Q467.32-9.56 467.86-8.60Q468.40-7.64 468.40-6.28L468.40-6.28Q468.40-3 465.90-1.16Q463.40 0.68 459.00 0.68L459.00 0.68Z"/></g>
</svg>
</g><g opacity="1" transform="rotate(0 516 144.9735)">
<svg width="114.0001" height="113.9267" x="516" y="144.9735" version="1.1" preserveAspectRatio="none" viewBox="5.9218831062316895 5.950356483459473 88.1560287475586 88.09937286376953">
  <g transform="matrix(1 0 0 1 0 0)" class="icon19bda5079-7451-4e33-96b4-61c12e5a47bd"><g transform="translate(0,-952.36218)"><path style="text-indent:0;text-transform:none;direction:ltr;block-progression:tb;baseline-shift:baseline;color:#000000;enable-background:accumulate;" d="m 13.035556,958.31255 c -0.9901,-10e-4 -2.0021,0.0311 -3.0313,0.0625 a 2.000005,2.000005 0 0 0 -0.7811993,3.78125 c 2.9818993,1.44093 4.3251993,4.52102 5.2499993,8.96875 0.9248,4.44772 1.2492,9.94443 2.5938,15.1875 1.3445,5.24306 3.8404,10.38032 9.125,13.53125 5.0322,3.0005 12.2763,4.0914 22.9062,2.5312 0.5222,1.6441 0.8011,3.2817 0.875,4.9688 0.2889,6.5914 -2.8158,14.4292 -8.6875,25.75 -11.5463,0.5251 -22.9412,3.6945 -34.1249993,9.4687 a 2.000005,2.000005 0 1 0 1.8437,3.5313 C 19.956456,1040.4392 30.957056,1037.4088 42.129256,1037 a 2.000005,2.000005 0 0 0 1,-0.031 c 12.542,-0.2833 25.2845,2.7528 38.3126,9.1562 a 2.000005,2.000005 0 1 0 1.75,-3.5937 c -12.5628,-6.1748 -25.0488,-9.3558 -37.375,-9.5313 3.3476,-6.5627 5.8612,-12.1085 7.1562,-17.1562 2.1277,-2.8593 3.9047,-3.7854 6.9688,-5.0625 1.2096,-0.5042 2.6702,-1.0966 4.2812,-1.7813 5.5688,0.9835 9.4781,1.04 12.4688,0.3438 3.1104,-0.7241 5.1727,-2.367 6.5937,-4.0625 2.8419,-3.3912 3.3414,-6.36153 9.2187,-7.65625 a 2.000005,2.000005 0 0 0 0.3126,-3.8125 c -4.9812,-2.04004 -9.4442,-2.88705 -13.3438,-2.875 -4.1513,0.0128 -7.6348,1.02543 -10.4062,2.6875 -4.8044,2.88109 -7.3743,7.60155 -7.25,12.06245 -1.216,0.5026 -2.356,0.9685 -3.4063,1.4063 -1.574,0.656 -3.0497,1.3722 -4.4375,2.3125 0.034,-0.7542 0.033,-1.5055 0,-2.25 -0.1027,-2.3441 -0.5647,-4.6082 -1.375,-6.8438 4.2149,-7.29934 4.5989,-17.85 -1.375,-26.62495 -5.9324,-8.71373 -18.0559,-15.35367 -38.1875,-15.375 z m 2.2813,4.03125 c 17.8025,0.47671 27.7516,6.48135 32.5937,13.59375 4.3629,6.40843 4.6322,13.9661 2.4687,19.71875 -2.345,-3.9769 -5.8525,-8.02097 -10.5624,-12.4375 a 2.000005,2.000005 0 0 0 -1.4376,-0.5625 2.000005,2.000005 0 0 0 -1.2812,3.5 c 4.9979,4.68647 8.3392,8.65179 10.375,12.4375 -9.4701,1.24916 -15.4205,0.10848 -19.2188,-2.15625 -4.1352,-2.46564 -6.0993,-6.39411 -7.3124,-11.125 -1.2133,-4.7309 -1.5495,-10.12828 -2.5626,-15 -0.599,-2.88149 -1.4893,-5.69653 -3.0624,-7.96875 z m 64.5312,32.5625 c 1.9681,0.0257 4.1492,0.33155 6.5625,0.96875 -3.2276,2.12497 -4.6667,5.02895 -6.1875,6.84375 -1.0839,1.2934 -2.1543,2.1872 -4.4375,2.7187 -1.2138,0.2826 -2.8146,0.4304 -4.875,0.3438 0.9643,-0.5309 1.9611,-1.1286 3.0313,-1.7813 a 2.000005,2.000005 0 0 0 -1,-3.7187 2.000005,2.000005 0 0 0 -1.0626,0.3125 c -2.2051,1.345 -4.1472,2.3752 -5.875,3.2187 0.5225,-2.4212 2.1608,-5.02233 5.0938,-6.7812 2.1819,-1.30847 5.0952,-2.17276 8.75,-2.125 z" fill-rule="evenodd" marker="none" visibility="visible" display="inline" overflow="visible"/></g></g>
</svg>
</g></svg></svg>